<?xml version="1.0" encoding="utf-8"?>
<!-- Generator: Adobe Illustrator 24.0.1, SVG Export Plug-In . SVG Version: 6.00 Build 0)  -->
<svg version="1.1" id="Mercer" xmlns="http://www.w3.org/2000/svg" xmlns:xlink="http://www.w3.org/1999/xlink" x="0px" y="0px"
	 width="947.7886963px" height="147.6064301px" viewBox="0 0 947.7886963 147.6064301"
	 style="enable-background:new 0 0 947.7886963 147.6064301;" xml:space="preserve">
<style type="text/css">
	.st0{fill:#002C77;}
</style>
<g>
	<g>
		<path class="st0" d="M314.3434143,139.7680511V8.2885647h25.6035156l45.3261719,70.5839844l45.8457031-70.5839844h24.9111328
			v131.4794922h-23.8740234v-95.150383l-47.0556641,72.8339844l-46.8828125-72.6601562v94.9765549H314.3434143z"/>
		<path class="st0" d="M532.7437744,142.8813324c-10.8417969,0-20.4736328-2.0175781-28.8905945-6.0546875
			c-8.4208984-4.0351562-15.0507812-9.9746017-19.8955078-17.8183517c-4.84375-7.8417969-7.265625-17.4726562-7.265625-28.890625
			c0-10.4941406,2.1621094-19.7226562,6.4873047-27.6806641s10.2939453-14.2128906,17.9052734-18.7705078
			c7.6123047-4.5546875,16.3193054-6.8330078,26.1230164-6.8330078c9.3417969,0,17.5,2.0488281,24.4794922,6.140625
			c6.9765625,4.0957031,12.3701172,9.8339844,16.1757812,17.2138672c3.8056641,7.3828125,5.7089844,16.0322266,5.7089844,25.9492188
			c0,1.3847656-0.0595703,2.7421875-0.1728516,4.0664062c-0.1162109,1.328125-0.2890625,3.3164062-0.5195312,5.96875h-73.351532
			c1.3837891,8.3046875,5.0742188,14.7910156,11.0722656,19.4628906c5.9950867,4.6699219,14.0693054,7.0058594,24.219696,7.0058594
			c12.9150391,0,24.7958984-4.0351562,35.6376953-12.109375v20.5859299
			c-5.1894531,3.5761719-11.1015625,6.4316406-17.7324219,8.5644531
			C546.0924072,141.8149261,539.4312744,142.8813324,532.7437744,142.8813324z M526.1695557,54.8246994
			c-7.3818359,0-13.3798828,2.2792969-17.9911804,6.8339844c-4.6142578,4.5576172-7.4990234,10.9287109-8.6503906,19.1162109
			h51.9003601c0-1.4970703-0.1162109-2.8242188-0.3466797-3.9785156
			c-1.1542969-7.1503906-3.8652344-12.5996094-8.1308594-16.3486328
			C538.682251,56.700676,533.0894775,54.8246994,526.1695557,54.8246994z"/>
		<path class="st0" d="M594.50354,139.7680511V39.9467697h22.3173828l0.1728516,20.7607422
			c2.6513672-6.8037109,6.6875-12.2236328,12.1103516-16.2626953c5.4189453-4.0351562,11.53125-6.0546875,18.3378906-6.0546875
			c1.84375,0,4.0351562,0.1728516,6.5742188,0.5185547c2.5351562,0.3466797,4.5546875,0.8085938,6.0546875,1.3847656v22.3164062
			c-1.8466797-0.5751953-4.2685547-1.0947266-7.2666016-1.5566406c-3-0.4599609-5.7675781-0.6923828-8.3037109-0.6923828
			c-8.6494141,0-15.2539062,2.7978516-19.8085938,8.390625c-4.5576172,5.5957031-6.8330078,13.6972656-6.8330078,24.3056641
			v46.7109299H594.50354z"/>
		<path class="st0" d="M721.9302979,142.8813324c-10.7255859,0-20.0673828-2.1347656-28.0253906-6.4003906
			s-14.0996094-10.3496017-18.4248047-18.2519455c-4.3251953-7.8984375-6.4873047-17.1542969-6.4873047-27.765625
			c0-10.7265625,2.21875-20.0957031,6.6601562-28.1123047c4.4384766-8.015625,10.6103516-14.2734375,18.5117188-18.7705078
			c7.8984375-4.4980469,17.0400391-6.7470703,27.4199219-6.7470703c5.1904297,0,9.9746094,0.6347656,14.359375,1.9023438
			c4.3818359,1.2705078,8.5332031,2.7685547,12.4560547,4.4980469v21.625
			c-3.8066406-2.3056641-7.9316406-4.0654297-12.3701172-5.2763672c-4.4414062-1.2109375-8.6796875-1.8164062-12.7148438-1.8164062
			c-9.3427734,0-16.8115234,2.8544922-22.4042969,8.5634766c-5.5947266,5.7089844-8.3896484,13.4667969-8.3896484,23.2685547
			c0,10.265625,2.7949219,18.2519531,8.3896484,23.9609375c5.5927734,5.7089844,13.3486328,8.5625,23.2685547,8.5625
			c4.0361328,0,7.8984375-0.4882812,11.5917969-1.4707031c3.6894531-0.9785156,7.8984375-2.5078125,12.6289062-4.5839844v20.587883
			c-3.6923828,1.8457031-7.7578125,3.34375-12.1972656,4.4980469
			C731.7623291,142.3032074,727.0045166,142.8813324,721.9302979,142.8813324z"/>
		<path class="st0" d="M818.4625244,142.8813324c-10.8417969,0-20.4736328-2.0175781-28.890625-6.0546875
			c-8.4208984-4.0351562-15.0507812-9.9746017-19.8955078-17.8183517c-4.84375-7.8417969-7.265625-17.4726562-7.265625-28.890625
			c0-10.4941406,2.1621094-19.7226562,6.4873047-27.6806641s10.2939453-14.2128906,17.9052734-18.7705078
			c7.6123047-4.5546875,16.3193359-6.8330078,26.1230469-6.8330078c9.3417969,0,17.5,2.0488281,24.4794922,6.140625
			c6.9765625,4.0957031,12.3701172,9.8339844,16.1757812,17.2138672c3.8056641,7.3828125,5.7089844,16.0322266,5.7089844,25.9492188
			c0,1.3847656-0.0595703,2.7421875-0.1728516,4.0664062c-0.1162109,1.328125-0.2890625,3.3164062-0.5195312,5.96875h-73.3515625
			c1.3837891,8.3046875,5.0742188,14.7910156,11.0722656,19.4628906c5.9951172,4.6699219,14.0693359,7.0058594,24.2197266,7.0058594
			c12.9150391,0,24.7958984-4.0351562,35.6376953-12.109375v20.5859299
			c-5.1894531,3.5761719-11.1015625,6.4316406-17.7324219,8.5644531
			C831.8111572,141.8149261,825.1500244,142.8813324,818.4625244,142.8813324z M811.8883057,54.8246994
			c-7.3818359,0-13.3798828,2.2792969-17.9912109,6.8339844c-4.6142578,4.5576172-7.4990234,10.9287109-8.6503906,19.1162109
			h51.9003906c0-1.4970703-0.1162109-2.8242188-0.3466797-3.9785156
			c-1.1542969-7.1503906-3.8652344-12.5996094-8.1308594-16.3486328
			C824.401001,56.700676,818.8082275,54.8246994,811.8883057,54.8246994z"/>
		<path class="st0" d="M882.22229,139.7680511V39.9467697h22.3173828l0.1728516,20.7607422
			c2.6513672-6.8037109,6.6875-12.2236328,12.1103516-16.2626953c5.4189453-4.0351562,11.53125-6.0546875,18.3378906-6.0546875
			c1.8427734,0,4.0341797,0.1728516,6.5732422,0.5185547c2.5351562,0.3466797,4.5546875,0.8085938,6.0546875,1.3847656v22.3164062
			c-1.84375-0.5751953-4.265625-1.0947266-7.265625-1.5566406c-3-0.4599609-5.7675781-0.6923828-8.3037109-0.6923828
			c-8.6494141,0-15.2539062,2.7978516-19.8085938,8.390625c-4.5576172,5.5957031-6.8330078,13.6972656-6.8330078,24.3056641
			v46.7109299H882.22229z"/>
	</g>
	<path class="st0" d="M241.8673553,31.8845177L189.2959442,1.599647c-3.7024384-2.1328628-9.7609863-2.1328628-13.4634094,0
		L30.8006973,85.1482773l80.2570877-61.4886322L72.7639008,1.5996506c-3.7024307-2.1328664-9.7609711-2.1328664-13.4634094,0
		L6.7290821,31.8845215c-3.7024386,2.1328697-6.7317142,7.3739014-6.7290802,11.6422234v60.5439034
		c-0.0026338,4.277359,3.0266418,9.5183945,6.7290802,11.651268l52.5714111,30.284874
		c3.7024384,2.1328583,9.7609787,2.1328583,13.4634094,0l145.0318298-83.5486374l-80.2570801,61.4886322l38.2938843,22.0600052
		c3.7024231,2.1328583,9.7609711,2.1328583,13.4634094,0l52.5714111-30.284874
		c3.7024384-2.1328735,6.7317047-7.373909,6.7317047-11.6467438V43.5312691
		C248.5990601,39.2584229,245.5697937,34.0173874,241.8673553,31.8845177z"/>
</g>
</svg>
